PathFileType	4	(X/Y/Z)	C:\Users\ebm\Documents\Erivelton\Erivelton2\wc2.trc
DataRate	CameraRate	NumFrames	NumMarkers	Units	OrigDataRate	OrigDataStartFrame	OrigNumFrames
150.00	150.00	      13	28	mm	150.00	695	      1389
Frame#	Time	IJ			PX			C7			T8			RAC			RAS			RPS			RAI			RPI			RLE			RME			RRS			RUS			R3M			R5M			LAC			LAS			LPS			LAI			LPI			LLE			LME			LRS			LUS			L3M			L5M			RW			LW			V_mid_elbow_r			V_mid_elbow_l			V_mid_wrist_r			V_mid_wrist_l			V_mid_trunk_low			V_mid_trunk_upp			
		X1	Y1	Z1	X2	Y2	Z2	X3	Y3	Z3	X4	Y4	Z4	X5	Y5	Z5	X6	Y6	Z6	X7	Y7	Z7	X8	Y8	Z8	X9	Y9	Z9	X10	Y10	Z10	X11	Y11	Z11	X12	Y12	Z12	X13	Y13	Z13	X14	Y14	Z14	X15	Y15	Z15	X16	Y16	Z16	X17	Y17	Z17	X18	Y18	Z18	X19	Y19	Z19	X20	Y20	Z20	X21	Y21	Z21	X22	Y22	Z22	X23	Y23	Z23	X24	Y24	Z24	X25	Y25	Z25	X26	Y26	Z26	X27	Y27	Z27	X28	Y28	Z28	

695	4.627	1189.69910	1021.37146	-52.61872	1196.02759	858.12158	-37.96061	1064.33240	1127.85095	-60.85613	980.73669	982.22467	-53.92871	1098.23267	1076.20483	144.61771	1010.82416	928.70380	220.71945	976.02570	963.07141	210.82423	961.78497	875.82684	250.74060	922.12579	910.52631	241.16342	889.44183	849.05951	266.00595	870.81482	829.51166	188.14264	1036.35144	624.90222	233.03638	997.97052	607.86450	278.27740	1077.37976	573.65588	281.89157	1049.18835	545.00201	289.18625	1096.71973	1073.63245	-236.99567	1008.80939	961.57538	-320.41559	972.32605	976.02881	-291.61179	966.40100	902.99628	-356.84793	922.83136	917.23523	-325.76563	912.75385	832.78015	-387.82895	874.76135	821.55750	-317.70721	1058.81848	622.64075	-329.30508	1025.20227	586.51996	-369.32001	1107.93384	567.78662	-371.93051	1075.48657	539.24445	-375.51144	1108.25537	299.32071	271.48001	1130.82874	298.99252	-357.47748	
696	4.633	1197.07104	1021.25385	-52.25989	1202.87866	857.91205	-37.69863	1071.74048	1127.69751	-60.56076	988.00348	982.36328	-53.77695	1105.82788	1075.65039	145.14421	1019.41602	926.71063	221.45847	984.38672	960.59070	211.63809	971.56897	873.20239	251.85326	931.25421	907.40155	242.14595	899.51892	845.47394	267.08990	880.78674	825.42725	189.48949	1048.94495	623.31769	234.22177	1012.06769	606.58447	279.84879	1091.50574	573.64362	283.44534	1064.16357	544.51996	291.27921	1104.33508	1073.38867	-236.76138	1017.42999	959.66870	-320.68076	980.70831	973.66656	-292.16791	976.18835	900.43640	-357.35114	932.54895	913.91620	-326.53256	923.78522	829.38745	-388.31989	885.18231	817.75018	-318.55725	1072.74634	621.56903	-328.58829	1039.76941	585.22058	-368.80722	1122.51208	567.12805	-372.18616	1089.69348	538.56909	-375.74033	1115.29480	299.21686	271.73218	1137.67981	298.94608	-357.24295	
697	4.640	1204.41772	1021.06854	-51.91228	1209.64246	857.66693	-37.40738	1079.08374	1127.55896	-60.12525	995.27161	982.46906	-53.61369	1113.36267	1075.04370	145.69943	1028.47852	924.71362	222.20490	992.77783	958.19916	212.58647	981.17334	870.67737	252.72258	940.47479	904.28314	243.28656	909.84998	841.94916	268.31943	891.01819	821.38812	190.90999	1062.15747	622.47949	235.48141	1025.80591	605.08551	281.30804	1105.28821	573.22192	284.99673	1078.53760	543.73578	293.32748	1111.97888	1073.06836	-236.53487	1026.32776	957.70184	-320.99216	989.16046	971.25653	-292.72061	986.06116	897.83569	-357.81674	942.05487	910.82361	-327.35809	935.11072	825.97876	-388.96109	896.68469	813.40692	-319.34698	1087.09766	620.49310	-327.92764	1054.32166	583.77002	-368.31723	1137.01953	566.38678	-372.24484	1103.62012	537.85736	-375.91919	1122.20776	299.06525	272.07684	1144.72253	298.81500	-356.85864	
698	4.647	1211.71265	1020.91736	-51.52774	1216.60376	857.43695	-37.13258	1086.40869	1127.36719	-59.72687	1002.54077	982.55597	-53.35999	1120.95728	1074.40430	146.29372	1037.53088	922.73682	222.97617	1001.40906	955.76477	213.50240	991.05548	868.04645	253.64803	949.89771	901.41394	244.60768	920.28528	838.44177	269.63104	901.28925	817.54382	192.38359	1075.06958	620.97882	236.72969	1039.16272	603.42847	282.69681	1119.76831	573.41119	285.91370	1092.47070	542.62238	294.97815	1119.51489	1072.76868	-236.36514	1035.28015	955.78992	-321.35977	997.77954	968.98865	-293.36734	996.05157	895.27838	-358.27292	951.63715	907.94000	-328.30960	946.62799	822.63129	-389.77335	907.82190	809.37598	-320.28430	1101.41565	619.63318	-327.40506	1068.90063	582.60181	-367.66602	1151.16064	566.57806	-373.67609	1117.67639	537.44995	-376.21393	1129.22888	298.85532	272.42935	1151.85718	298.55060	-356.49390	
699	4.653	1218.94666	1020.75598	-51.10108	1223.40723	857.23926	-36.78974	1093.67664	1127.26343	-59.28028	1009.80872	982.63300	-53.10929	1128.61340	1073.74097	146.97188	1046.65784	920.92859	223.89323	1010.12994	953.61621	214.50076	1000.85376	865.63324	254.70445	959.20471	898.50604	245.91580	930.66797	835.08679	271.10608	911.59119	813.89948	193.81905	1087.99451	619.82574	237.95792	1052.19324	601.68982	283.79785	1133.41565	572.71027	287.15796	1106.57581	541.34540	296.06500	1127.15027	1072.39392	-236.11313	1044.38062	953.99603	-321.84213	1006.63470	966.88544	-294.05820	1005.89850	893.09106	-358.87601	961.09381	905.68500	-329.42273	958.07428	819.64880	-390.95123	918.91284	805.44403	-321.35925	1115.70764	619.45288	-326.60968	1083.16187	582.32800	-367.16425	1166.01953	566.04352	-373.60239	1131.46362	537.94232	-376.72897	1136.24976	298.62570	272.79395	1159.08899	298.29898	-356.15634	
700	4.660	1226.24988	1020.57642	-50.63898	1230.19043	856.93890	-36.47682	1101.00330	1127.03967	-58.84155	1017.00140	982.73145	-52.80659	1136.35669	1073.00391	147.64032	1055.66455	919.08295	224.93120	1018.87921	951.59503	215.72501	1012.08960	864.65173	254.90474	968.80676	895.84198	247.08678	940.94904	831.98425	272.65479	921.93372	810.52856	195.37117	1101.10999	618.98810	238.85249	1065.22791	600.12476	284.57272	1146.91553	571.98755	288.25256	1120.41528	540.24011	296.75153	1134.82056	1071.97791	-235.92339	1053.48706	952.54089	-322.36603	1015.56879	965.31702	-294.74115	1015.57043	891.35101	-359.41611	970.40350	904.01849	-330.52866	968.95844	817.42609	-392.17459	929.57623	802.38733	-322.91107	1129.51099	619.95319	-325.93860	1097.29272	582.91559	-366.52368	1179.90576	566.67236	-373.19119	1144.71875	539.43677	-376.45767	1143.40588	298.44080	273.08615	1166.40906	298.17114	-355.86667	
701	4.667	1233.40894	1020.38831	-50.16339	1237.03955	856.69196	-36.05952	1108.22449	1126.89941	-58.26952	1024.19409	982.81030	-52.53749	1144.16821	1072.25781	148.38065	1064.91284	917.30383	225.83934	1027.64233	949.56696	217.08347	1021.71893	862.49689	256.08350	978.04156	893.30328	248.62509	951.20398	829.10571	274.32626	931.99774	807.45605	197.05862	1114.50781	618.54816	239.39029	1078.61011	598.92230	285.01898	1160.52502	571.13525	289.16818	1133.85254	539.38129	297.07254	1142.57751	1071.60339	-235.71312	1062.59937	951.53827	-322.73907	1024.48254	964.15869	-295.36334	1025.09802	890.35150	-360.11078	979.69946	902.79364	-331.52710	979.30115	816.08258	-393.42334	939.70361	800.39862	-324.81558	1143.99182	621.45441	-324.98312	1111.49292	584.30792	-365.82690	1193.64832	566.93683	-372.47015	1157.90515	540.31653	-375.62863	1150.53394	298.24747	273.33344	1173.83069	298.26086	-355.56943	
702	4.673	1240.70569	1020.17987	-49.62408	1243.86414	856.40442	-35.70290	1115.52881	1126.68152	-57.68574	1031.45374	982.85883	-52.21099	1152.15503	1071.46289	149.22482	1073.79712	915.76367	226.97414	1036.32727	947.72247	218.55898	1031.15735	860.52197	257.37311	987.44055	891.11023	250.19118	961.31342	826.55768	276.06131	941.75568	804.63647	198.95815	1128.24695	618.54529	239.76257	1092.41882	598.26563	285.39001	1174.06653	570.22314	289.83026	1146.89246	538.67078	297.31384	1150.49707	1071.24316	-235.42567	1071.55981	950.98682	-323.09650	1033.22375	963.28326	-295.90915	1034.60608	889.78864	-360.93542	989.11127	901.65485	-332.46359	989.66681	815.09045	-394.77310	949.61462	799.28986	-326.65735	1157.40833	622.86273	-324.35568	1125.51794	585.85938	-365.08963	1207.00806	566.98059	-371.57333	1170.80444	540.98950	-374.66452	1157.68555	298.11481	273.56219	1181.08350	298.37958	-355.36945	
703	4.680	1247.96838	1019.91351	-49.10978	1250.58728	856.06812	-35.23718	1122.89404	1126.52185	-57.14993	1038.71960	982.92181	-51.84210	1160.18994	1070.68311	150.11041	1082.70044	914.47894	228.19478	1044.98303	946.20892	220.05292	1040.67773	858.84296	258.75394	996.58362	889.22729	251.78009	971.33105	824.22516	277.79803	950.25714	802.45325	200.72694	1141.99524	618.79724	240.37433	1106.35010	598.36023	285.96796	1187.63892	569.31073	290.36536	1159.84009	538.13556	297.52991	1158.43848	1070.81494	-235.19289	1080.55493	950.59967	-323.33395	1041.88562	962.38501	-296.40475	1044.36548	889.35394	-361.90887	998.59961	900.40674	-333.52713	1000.37421	814.14032	-396.17438	959.64807	798.44049	-328.41592	1170.62292	624.45795	-323.90787	1139.10571	586.95868	-364.26587	1220.31213	566.72284	-370.55075	1183.68970	541.46613	-373.78662	1164.87830	298.05649	273.79532	1188.24854	298.36691	-355.10483	
704	4.687	1255.19287	1019.60419	-48.48903	1257.52185	855.72528	-34.72446	1130.22986	1126.36609	-56.51504	1045.92944	983.01892	-51.43320	1168.29150	1069.96484	151.04681	1091.51465	913.26672	229.45018	1053.43909	944.65015	221.61110	1050.05554	857.32184	260.43823	1005.74426	887.42389	253.50494	981.27606	822.12030	279.56125	959.73334	800.24506	202.80750	1155.79248	619.43921	241.42386	1120.01538	598.85248	286.63339	1201.04260	568.33344	291.18265	1172.65723	537.74860	297.84705	1166.35437	1070.43640	-234.90106	1089.45691	950.24310	-323.70056	1050.58386	961.32172	-296.95609	1054.38464	888.92950	-363.24628	1008.36743	898.93066	-334.82660	1011.45685	812.95007	-397.62292	969.96008	797.32007	-330.25958	1183.65259	625.17377	-323.12601	1152.42957	587.59174	-363.48010	1233.40259	566.26495	-369.87589	1196.32336	541.69324	-372.99326	1171.95435	297.96228	274.07339	1195.27795	298.28137	-354.85172	
705	4.693	1262.37659	1019.31409	-48.02281	1264.32178	855.37360	-34.19330	1137.60925	1126.22595	-55.83168	1053.26099	983.08813	-51.04176	1176.47546	1069.33936	152.00006	1100.81262	912.11548	231.03183	1062.03027	943.36011	223.12286	1059.56006	855.93256	262.11996	1015.01257	885.53259	255.13275	991.47363	820.08075	281.23315	969.36456	798.15436	204.79773	1169.26746	620.06708	242.05652	1133.50671	599.42468	287.39001	1214.57251	567.51648	291.85672	1185.48303	537.52094	298.33517	1174.08740	1070.05457	-234.52933	1098.51587	949.76422	-324.17352	1059.29590	960.06952	-297.65515	1064.55847	888.42188	-364.75705	1018.25757	897.28064	-336.31061	1022.88861	811.52393	-399.08984	980.56262	795.80402	-332.42307	1195.96484	625.35675	-323.06177	1165.59363	587.90692	-362.85440	1246.17102	565.34857	-369.15051	1208.74768	541.72333	-372.43930	1178.94177	297.92307	274.41623	1202.20825	298.18997	-354.62430	
706	4.700	1269.53235	1019.03619	-47.43849	1271.14929	855.11945	-33.71082	1144.94519	1126.08667	-55.22892	1060.54785	983.15820	-50.62221	1184.61316	1068.80933	152.89426	1109.65601	911.22949	232.34727	1069.94556	941.19940	225.60953	1069.39136	854.44141	263.57822	1024.45654	883.68567	257.02789	1001.77899	818.09662	282.94421	979.27789	796.05853	206.73964	1182.85083	620.63153	242.99182	1146.80884	599.98553	288.23239	1228.22717	566.84399	292.59644	1198.49084	537.36719	298.93280	1181.81372	1069.66223	-234.09631	1107.76086	949.13483	-324.76715	1067.69177	958.58472	-298.91196	1075.07190	887.61835	-366.15903	1028.37366	895.52118	-337.94412	1034.57178	809.91077	-400.55511	991.38654	793.93115	-334.76303	1210.25049	625.92987	-322.11353	1179.01880	588.40143	-362.46231	1259.45471	564.38971	-369.01581	1221.47046	541.51318	-371.89914	1185.94873	297.92484	274.71500	1209.19165	298.20773	-354.29593	
707	4.707	1276.90942	1018.75580	-46.76937	1278.06079	854.90930	-33.17490	1152.32153	1125.99011	-54.55568	1067.87964	983.19800	-50.21014	1192.68665	1068.42139	153.80888	1118.84973	910.27606	233.62920	1078.76172	939.99310	227.43076	1079.32300	852.83075	265.10574	1034.03333	881.74182	259.02740	1012.40033	815.93561	284.56323	989.44550	793.85431	208.67427	1196.58997	621.04779	244.19006	1160.21204	600.47955	289.08139	1241.71948	565.87976	293.23087	1211.39514	537.05865	299.61499	1189.57239	1069.31372	-233.64064	1116.68689	948.38043	-325.82245	1076.62402	957.11774	-300.10574	1085.76599	886.56152	-367.31989	1038.64673	893.69476	-339.86673	1046.61682	808.07739	-402.07162	1002.47449	791.78961	-337.05286	1223.78162	625.88733	-322.15781	1192.08838	587.91797	-361.84109	1271.56384	561.86511	-367.95505	1234.08215	541.15411	-371.31674	1192.95251	297.89584	275.02151	1216.11707	298.20941	-353.97934	
